# xmcd CD database file
#
# Track frame offsets:
#	150
#	18865
#	33832
#	55437
#	71080
#	87292
#	104997
#	125500
#	145020
#	167222
#	182500
#
# Disc length: 2770 seconds
#
# Revision: 4
# Processed by: cddbd v1.4PL0 Copyright (c) Steve Scherf et al.
# Submitted via: CDex 1.40Release
#
DISCID=980ad00b
DTITLE=Sons Of The Desert - Change
DYEAR=2000
DGENRE=Country
TTITLE0=Goodbye To Hello
TTITLE1=Albuquerque
TTITLE2=What I Did Right
TTITLE3=Everybody's Gotta Grow Up Sometime
TTITLE4=Too Far To Where You Are
TTITLE5=I Need To Be Wrong Again
TTITLE6=That's The Kind Of Love You're In
TTITLE7=Real Fine Love
TTITLE8=Blue Money
TTITLE9=Change
TTITLE10=Ride
EXTD=YEAR: 2000 ID3G: 2
EXTT0=
EXTT1=
EXTT2=
EXTT3=
EXTT4=
EXTT5=
EXTT6=
EXTT7=
EXTT8=
EXTT9=
EXTT10=
PLAYORDER=
